<?xml version="1.0" encoding="UTF-8" standalone="no"?>
<!DOCTYPE svg PUBLIC "-//W3C//DTD SVG 1.1//EN" "http://www.w3.org/Graphics/SVG/1.1/DTD/svg11.dtd">
<svg width="100%" height="100%" viewBox="0 0 594 114" version="1.1" xmlns="http://www.w3.org/2000/svg" xmlns:xlink="http://www.w3.org/1999/xlink" xml:space="preserve" xmlns:serif="http://www.serif.com/" style="fill-rule:evenodd;clip-rule:evenodd;stroke-linejoin:round;stroke-miterlimit:2;">
    <g transform="matrix(1,0,0,1,-594.527,-659.241)">
        <g transform="matrix(106.795,-7.78729e-16,7.78729e-16,-113.154,594.527,715.819)">
            <path d="M0.68,0.5L0.68,0.159L0.32,0.008L0.32,0.398L0.578,0.398L0.578,0.5L-0,0.5L-0,-0.5L0.32,-0.5L0.32,-0.108L0.542,-0.008L0.68,-0.133L0.68,-0.398L0.422,-0.398L0.422,-0.5L1,-0.5L1,0.5L0.68,0.5ZM0.782,-0.087L0.645,0.039L0.782,0.099L0.782,0.398L0.898,0.398L0.898,-0.398L0.782,-0.398L0.782,-0.087ZM0.102,0.398L0.218,0.398L0.218,-0.398L0.102,-0.398L0.102,0.398Z" style="fill-rule:nonzero;"/>
        </g>
        <g transform="matrix(1.79561,0,0,1.79561,722.071,765.081)">
            <g transform="matrix(0.926596,0,0,1,0,0)">
                <g transform="matrix(78.3851,0,0,78.3851,283.597,0)">
                </g>
                <text x="0px" y="0px" style="font-family:'Montserrat-Bold', 'Montserrat';font-weight:700;font-size:78.385px;">SHARE</text>
            </g>
        </g>
    </g>
</svg>
